:SAMPLES-PER-SECOND 30
:FRAME-RANGE 1-1390
:FULLY-SPECIFIED
:DEGREES
652
root  24.9222 36.5675 -45.6699 -14.0553 39.9496 -2.01243
RightUpLeg  -9.46606 -3.69171 8.7879
RightLeg  43.6335 -3.93135 -4.32391
RightFoot  -22.1827 -0.452135 -3.18208
RightToes  -2.9104e-010 0 -3.6325e-017
Spine  21.3544 -1.9666 -0.596661
Spine1  2.09578 -6.10115 5.50599
HEad  23.5469 -1.7281 -2.9507
LeftShoulder1  3.43706 -5.08414 -34.0113
LeftArm  82.6344 -37.8649 -83.9035
LeftForeArm  0.190258 -16.6884 -12.3235
LeftHand  -0.0419462 3.80197 1.65597
RightShoulder  14.9868 23.9321 47.6512
RightArm  33.2202 12.1921 23.2597
RightForeArm  24.9451 16.6741 8.96391
RightHand  0.689254 6.68255 6.25618
LeftUpLeg  -89.7559 25.381 -63.6265
LeftLeg  121.262 -2.20858 2.85048
LeftFoot  8.44827 1.32674 -7.8936
LeftToes  5.45371e-012 -1.3743e-010 1.09575e-010
653
root  24.8975 37.0147 -45.3406 -13.808 41.7507 -1.88538
RightUpLeg  -7.59924 -5.16778 8.41876
RightLeg  40.2321 -4.17126 -4.07027
RightFoot  -21.051 -0.405846 -3.10093
RightToes  -2.9104e-010 0 -3.6325e-017
Spine  20.8363 -1.82543 -1.07528
Spine1  1.57785 -6.0855 5.55335
HEad  24.4911 -3.42826 -2.30677
LeftShoulder1  3.43277 -5.16618 -33.5878
LeftArm  81.4813 -37.5303 -83.4922
LeftForeArm  0.342599 -16.5 -12.5001
LeftHand  -0.0339749 3.78392 1.02966
RightShoulder  14.8312 23.6714 47.6142
RightArm  33.1069 11.6295 23.8677
RightForeArm  25.0501 16.2485 9.32905
RightHand  0.660653 6.66353 5.99317
LeftUpLeg  -90.4807 26.2562 -64.4446
LeftLeg  122.2 -3.06776 4.00418
LeftFoot  11.4411 1.50512 -7.81072
LeftToes  5.45371e-012 -1.3743e-010 1.09575e-010
654
root  24.8478 37.66 -45.0055 -12.4345 43.6163 -1.06467
RightUpLeg  -5.72887 -6.18602 7.66972
RightLeg  35.3088 -4.68614 -3.82902
RightFoot  -18.9192 -0.340244 -3.20526
RightToes  -2.9104e-010 0 -3.6325e-017
Spine  20.2554 -1.35361 -2.24064
Spine1  0.354473 -5.82244 5.56834
HEad  24.887 -5.35551 -1.44518
LeftShoulder1  3.44253 -5.16999 -33.6821
LeftArm  81.1254 -36.4628 -82.599
LeftForeArm  0.140372 -16.59 -12.4229
LeftHand  -0.0311221 3.73668 0.804285
RightShoulder  14.5828 23.2327 47.5945
RightArm  34.7287 10.8419 24.3703
RightForeArm  23.2608 16.3976 9.3272
RightHand  0.638681 6.33999 5.96027
LeftUpLeg  -91.7512 26.3939 -66.0698
LeftLeg  122.871 -3.80791 4.95515
LeftFoot  13.4758 1.52952 -7.322
LeftToes  5.45371e-012 -1.3743e-010 1.09575e-010
655
root  24.7946 38.3579 -44.7124 -10.4455 45.965 0.422934
RightUpLeg  -4.04129 -7.28918 6.34739
RightLeg  30.2914 -5.17733 -3.50912
RightFoot  -16.106 -0.22685 -2.83531
RightToes  -2.9104e-010 0 -3.6325e-017
Spine  19.6419 -0.9804 -3.9825
Spine1  -0.462698 -5.70838 5.4663
HEad  25.0513 -7.47029 -0.621067
LeftShoulder1  3.43958 -5.24538 -33.3097
LeftArm  79.2447 -35.9841 -82.6714
LeftForeArm  1.63661 -16.1359 -12.7816
LeftHand  -0.0200295 3.68848 -0.0036597
RightShoulder  14.4233 22.9063 47.6645
RightArm  33.9463 10.237 24.7232
RightForeArm  23.6157 15.9254 9.69405
RightHand  0.647769 6.38332 6.02506
LeftUpLeg  -92.4085 25.9434 -67.875
LeftLeg  122.97 -4.3375 5.68581
LeftFoot  14.6609 1.66332 -7.58803
LeftToes  5.45371e-012 -1.3743e-010 1.09575e-010
656
root  24.7122 38.9829 -44.5375 -9.41742 48.0847 0.790446
RightUpLeg  -3.66099 -6.96694 6.05446
RightLeg  27.5939 -6.08269 -3.67814
RightFoot  -11.9099 -0.0852049 -0.930177
RightToes  -2.9104e-010 0 -3.6325e-017
Spine  20.1879 -0.787015 -4.36317
Spine1  -1.80568 -5.51592 5.09571
HEad  24.8053 -8.93715 -0.326536
LeftShoulder1  3.45604 -5.36607 -32.9627
LeftArm  76.9332 -36.0621 -83.2033
LeftForeArm  3.42022 -15.4833 -13.2886
LeftHand  -0.0199505 3.85469 -0.0837873
RightShoulder  14.2676 22.5753 47.7573
RightArm  31.9831 10.3215 24.6889
RightForeArm  25.0306 14.7963 10.5325
RightHand  0.607973 6.45167 5.59838
LeftUpLeg  -92.5465 25.319 -68.6653
LeftLeg  122.496 -5.20214 7.0297
LeftFoot  16.3531 1.82779 -7.81701
LeftToes  5.45371e-012 -1.3743e-010 1.09575e-010
657
root  24.5694 39.3817 -44.5367 -8.53047 49.2804 0.31404
RightUpLeg  -5.92065 -6.42421 6.35056
RightLeg  28.2577 -6.00268 -3.72581
RightFoot  -7.69682 -0.0855292 1.04656
RightToes  -2.9104e-010 0 -3.6325e-017
Spine  21.1046 -0.703119 -3.75013
Spine1  -3.06409 -5.23567 4.57937
HEad  23.365 -9.18865 -0.474434
LeftShoulder1  3.45947 -5.32951 -33.1617
LeftArm  80.2572 -35.9584 -83.4362
LeftForeArm  -0.2341 -16.3938 -12.6334
LeftHand  -0.0206951 4.00902 -0.290262
RightShoulder  14.2909 22.8017 47.4111
RightArm  29.7425 10.4412 24.5033
RightForeArm  26.7866 13.9527 11.0322
RightHand  0.634842 6.54087 5.81172
LeftUpLeg  -93.0612 24.5319 -69.391
LeftLeg  121.456 -6.2553 8.8718
LeftFoot  17.2633 1.86028 -7.70843
LeftToes  5.45371e-012 -1.3743e-010 1.09575e-010
658
root  24.3937 39.5057 -44.5009 -7.08322 50.8423 0.141365
RightUpLeg  -8.04511 -6.58882 6.33863
RightLeg  27.6187 -4.79271 -2.95393
RightFoot  -5.91836 -0.0491923 0.190418
RightToes  -2.9104e-010 0 -3.6325e-017
Spine  21.3417 -0.707765 -3.9454
Spine1  -3.29037 -5.29855 4.42139
HEad  21.7862 -9.25089 -0.146124
LeftShoulder1  3.47192 -5.40629 -32.9653
LeftArm  80.0177 -36.1351 -84.0845
LeftForeArm  0.65137 -16.2489 -12.7255
LeftHand  -0.0213191 4.17726 -0.132127
RightShoulder  14.1418 22.9854 46.563
RightArm  30.4808 10.0121 24.7839
RightForeArm  25.934 14.5681 10.5821
RightHand  0.653487 6.59753 5.96075
LeftUpLeg  -92.9305 23.9298 -70.3537
LeftLeg  120.815 -6.15153 8.93604
LeftFoot  17.899 2.15656 -8.68103
LeftToes  5.45371e-012 -1.3743e-010 1.09575e-010
659
root  24.2567 39.2839 -44.348 -6.38088 53.1175 -0.490158
RightUpLeg  -8.16701 -8.07686 6.85675
RightLeg  25.091 -4.74361 -2.6514
RightFoot  -8.36381 -0.00701678 -1.9077
RightToes  -2.9104e-010 0 -3.6325e-017
Spine  21.2587 -0.860875 -3.89786
Spine1  -2.93356 -5.45332 4.28226
HEad  20.9218 -9.61362 0.166625
LeftShoulder1  3.48705 -5.4331 -33.0177
LeftArm  76.5479 -36.1905 -84.4625
LeftForeArm  5.09314 -15.254 -13.408
LeftHand  -0.0215599 4.26679 0.143707
RightShoulder  13.8256 22.6441 46.1079
RightArm  31.5696 8.80826 25.0303
RightForeArm  24.5962 15.596 9.75896
RightHand  0.635467 6.38842 5.90155
LeftUpLeg  -92.0291 24.0942 -69.9458
LeftLeg  121.571 -3.95374 5.42913
LeftFoot  21.1033 2.79473 -10.0396
LeftToes  5.45371e-012 -1.3743e-010 1.09575e-010
660
root  24.1118 38.8103 -44.1697 -6.41293 55.1644 -1.90208
RightUpLeg  -8.72652 -8.84362 8.50603
RightLeg  24.2001 -6.82744 -3.54111
RightFoot  -12.3293 -0.123425 -4.65478
RightToes  -2.9104e-010 0 -3.6325e-017
Spine  21.6791 -0.969595 -2.80992
Spine1  -3.1549 -5.27981 3.69263
HEad  19.9717 -10.0813 0.165616
LeftShoulder1  3.415 -5.33243 -32.6473
LeftArm  80.0418 -34.7799 -84.7392
LeftForeArm  2.17952 -16.2842 -12.613
LeftHand  -0.0191313 3.89517 -0.172817
RightShoulder  13.1597 21.5208 45.8725
RightArm  33.379 6.80374 25.3046
RightForeArm  21.5357 17.6558 7.9983
RightHand  0.690642 6.36162 6.45856
LeftUpLeg  -91.2982 24.5521 -69.3562
LeftLeg  123.056 -4.39177 5.74366
LeftFoot  22.7753 3.00842 -10.2494
LeftToes  5.45371e-012 -1.3743e-010 1.09575e-010
661
root  23.8699 38.3797 -44.133 -7.03361 56.1056 -4.1187
RightUpLeg  -12.1966 -7.76298 10.6406
RightLeg  27.7424 -8.84505 -5.25433
RightFoot  -13.665 -0.1955 -5.08584
RightToes  -2.9104e-010 0 -3.6325e-017
Spine  22.8871 -0.93902 -0.889483
Spine1  -3.31184 -4.81322 2.6822
HEad  16.9503 -9.42822 0.290848
LeftShoulder1  3.35378 -5.221 -32.4387
LeftArm  85.6333 -33.6402 -84.7456
LeftForeArm  -2.70982 -17.8509 -11.2741
LeftHand  -0.0215293 3.67825 0.108142
RightShoulder  12.7819 20.6785 46.1333
RightArm  33.6188 5.3381 25.306
RightForeArm  20.2835 19.3913 6.40953
RightHand  0.681679 6.19917 6.46903
LeftUpLeg  -91.3709 25.4085 -68.8418
LeftLeg  123.939 -4.77061 6.06988
LeftFoot  23.5352 2.49525 -8.40326
LeftToes  5.45371e-012 -1.3743e-010 1.09575e-010
662
root  23.6453 38.1414 -44.2076 -5.80367 56.745 -5.03328
RightUpLeg  -15.773 -8.41317 11.5775
RightLeg  29.5725 -8.45681 -5.40353
RightFoot  -14.1301 -0.226162 -5.36686
RightToes  -2.9104e-010 0 -3.6325e-017
Spine  23.201 -0.997853 -0.669197
Spine1  -2.30719 -4.93017 2.91576
HEad  12.6121 -7.00989 -0.18544
LeftShoulder1  3.31253 -5.23727 -31.8944
LeftArm  84.5493 -33.6233 -85.5462
LeftForeArm  -1.13781 -17.4594 -11.6068
LeftHand  -0.0337971 3.83921 1.03118
RightShoulder  12.9273 20.8309 46.3711
RightArm  30.9405 5.36156 24.8155
RightForeArm  21.7603 19.6061 6.0602
RightHand  0.662187 6.23135 6.25567
LeftUpLeg  -91.3547 25.6457 -68.9074
LeftLeg  123.613 -4.76911 6.14294
LeftFoot  24.2766 2.57115 -8.46795
LeftToes  5.45371e-012 -1.3743e-010 1.09575e-010
